<svg id="svg" version="1.1" xmlns="http://www.w3.org/2000/svg" xmlns:xlink="http://www.w3.org/1999/xlink" width="400" height="400" viewBox="0, 0, 400,400"><g id="svgg"><path id="path0" d="M129.949 77.157 L 129.949 79.865 132.064 79.868 C 153.718 79.904,177.159 89.169,194.741 104.642 L 196.080 105.821 192.930 109.470 C 186.927 116.423,182.662 122.696,178.641 130.489 L 176.354 134.920 174.556 133.084 C 163.743 122.038,148.635 115.368,132.741 114.625 L 129.949 114.494 129.949 117.073 L 129.949 119.652 134.602 120.059 C 149.253 121.340,161.925 127.551,172.225 138.500 L 174.062 140.452 172.644 144.761 C 165.652 166.013,165.654 187.942,172.652 209.582 L 174.054 213.919 170.868 217.138 C 160.852 227.258,148.693 232.963,134.433 234.233 L 129.949 234.633 129.949 237.113 L 129.949 239.594 132.741 239.588 C 147.238 239.556,164.549 231.805,175.231 220.564 L 176.350 219.387 178.639 223.822 C 182.660 231.614,187.682 238.951,193.370 245.347 C 196.491 248.856,196.595 248.137,192.470 251.598 C 175.731 265.645,152.495 274.410,131.895 274.447 L 129.949 274.450 129.949 277.110 L 129.949 279.770 133.249 279.638 C 157.478 278.664,179.667 269.987,197.226 254.617 C 200.211 252.004,199.924 252.019,202.485 254.350 C 219.107 269.475,242.453 278.662,266.751 279.638 L 270.051 279.770 270.051 277.161 L 270.051 274.551 265.567 274.321 C 243.873 273.205,223.635 265.156,206.853 250.971 C 203.511 248.147,203.538 248.823,206.630 245.347 C 212.318 238.952,217.340 231.614,221.360 223.824 L 223.648 219.392 225.107 220.904 C 235.760 231.953,252.914 239.556,267.259 239.588 L 270.051 239.594 270.051 237.113 L 270.051 234.633 265.567 234.233 C 251.469 232.977,239.021 227.135,229.122 217.130 L 225.926 213.899 227.338 209.572 C 234.300 188.240,234.364 166.475,227.526 145.193 L 225.954 140.302 230.202 136.182 C 240.381 126.308,252.498 120.909,266.670 119.933 L 270.051 119.700 270.051 117.048 L 270.051 114.395 268.613 114.547 C 267.821 114.630,265.847 114.780,264.225 114.880 C 251.066 115.690,236.807 122.187,226.528 132.054 C 224.961 133.559,223.629 134.729,223.569 134.654 C 223.509 134.579,222.472 132.614,221.264 130.288 C 217.191 122.439,212.294 115.296,206.648 108.968 C 203.557 105.503,203.405 106.131,208.313 102.091 C 225.092 88.285,247.583 79.902,267.936 79.868 L 270.051 79.865 270.051 77.157 C 270.051 75.217,269.931 74.450,269.628 74.451 C 245.409 74.520,219.679 84.352,202.111 100.250 C 199.936 102.219,200.182 102.225,197.816 100.154 C 179.247 83.905,154.622 74.520,130.372 74.451 C 130.069 74.450,129.949 75.217,129.949 77.157 M202.543 112.489 C 207.888 118.438,212.998 125.946,216.728 133.333 C 220.078 139.966,220.007 139.167,217.575 142.864 C 203.888 163.665,204.037 191.417,217.946 212.029 C 219.973 215.032,220.061 214.382,216.728 220.981 C 212.895 228.572,207.161 236.914,202.076 242.301 L 199.999 244.501 198.102 242.470 C 192.729 236.718,187.278 228.829,183.369 221.148 C 179.906 214.343,179.986 215.158,182.423 211.451 C 195.901 190.955,195.963 163.535,182.578 143.106 C 179.971 139.127,179.906 139.999,183.318 133.237 C 187.075 125.792,192.515 117.877,197.998 111.877 C 200.142 109.532,199.850 109.493,202.543 112.489 M224.354 153.469 C 228.671 170.134,228.239 188.273,223.125 205.161 C 222.087 208.587,222.109 208.572,220.932 206.683 C 209.946 189.052,210.075 164.617,221.247 147.067 L 222.127 145.685 222.758 147.716 C 223.106 148.832,223.824 151.421,224.354 153.469 M179.159 147.697 C 189.993 166.185,189.958 189.206,179.068 206.683 C 177.880 208.591,177.930 208.634,176.698 204.622 C 171.323 187.116,171.388 167.451,176.882 149.154 C 177.909 145.734,177.982 145.688,179.159 147.697 M129.949 157.191 C 129.949 159.627,129.981 159.729,130.741 159.729 C 134.219 159.729,139.318 162.089,142.343 165.100 C 152.215 174.922,146.447 192.017,132.502 194.267 L 129.949 194.678 129.949 197.170 L 129.949 199.662 131.587 199.662 C 139.827 199.662,148.497 193.009,151.505 184.377 C 156.251 170.760,145.541 154.653,131.739 154.653 L 129.949 154.653 129.949 157.191 M264.298 155.185 C 249.832 158.971,242.884 175.861,250.484 188.768 C 254.051 194.827,262.008 199.662,268.413 199.662 L 270.051 199.662 270.051 197.144 L 270.051 194.627 268.443 194.406 C 247.750 191.563,247.616 162.618,268.284 159.876 L 270.051 159.642 270.051 157.148 L 270.051 154.653 268.105 154.675 C 267.035 154.688,265.321 154.917,264.298 155.185 M195.742 297.451 C 193.902 298.196,192.560 300.944,192.557 303.976 L 192.555 305.584 191.032 305.584 L 189.509 305.584 189.509 307.445 L 189.509 309.306 191.032 309.306 L 192.555 309.306 192.555 317.090 L 192.555 324.873 194.755 324.873 L 196.954 324.873 196.954 317.090 L 196.954 309.306 198.816 309.306 L 200.677 309.306 200.677 307.445 L 200.677 305.584 198.773 305.584 L 196.868 305.584 197.037 303.829 C 197.246 301.648,198.209 300.687,199.908 300.962 L 201.015 301.142 201.015 299.133 L 201.015 297.124 198.731 297.145 C 197.475 297.157,196.130 297.295,195.742 297.451 M173.942 311.168 L 173.942 324.873 176.142 324.873 L 178.342 324.873 178.342 311.168 L 178.342 297.462 176.142 297.462 L 173.942 297.462 173.942 311.168 M182.741 300.000 L 182.741 302.200 184.941 302.200 L 187.140 302.200 187.140 300.000 L 187.140 297.800 184.941 297.800 L 182.741 297.800 182.741 300.000 M246.024 300.000 L 246.024 302.200 248.223 302.200 L 250.423 302.200 250.423 300.000 L 250.423 297.800 248.223 297.800 L 246.024 297.800 246.024 300.000 M129.949 311.639 L 129.949 324.873 132.318 324.873 L 134.687 324.873 134.687 319.797 L 134.687 314.721 137.831 314.721 C 145.378 314.721,148.900 312.109,148.900 306.514 C 148.900 300.480,146.206 298.754,136.464 298.545 L 129.949 298.405 129.949 311.639 M141.929 303.010 C 143.486 303.660,144.162 304.757,144.162 306.629 C 144.162 309.645,142.488 310.655,137.479 310.658 L 134.687 310.660 134.687 306.599 L 134.687 302.538 137.744 302.538 C 139.592 302.538,141.246 302.725,141.929 303.010 M158.037 305.204 C 146.292 307.739,148.063 325.042,160.068 325.042 C 168.879 325.042,173.392 314.870,167.538 308.203 C 165.488 305.868,161.214 304.518,158.037 305.204 M209.386 305.257 C 201.402 307.253,198.964 317.114,205.092 322.624 C 212.710 329.473,224.425 321.533,221.168 311.729 C 219.643 307.136,214.084 304.082,209.386 305.257 M258.896 305.304 C 256.489 305.995,254.484 308.346,254.484 310.477 C 254.484 311.309,254.554 311.337,256.684 311.337 C 258.630 311.337,258.883 311.262,258.883 310.684 C 258.883 309.623,260.468 308.629,262.159 308.629 C 264.074 308.629,265.313 309.738,265.313 311.452 L 265.313 312.614 261.844 312.755 C 255.610 313.009,252.822 315.642,253.643 320.501 C 254.323 324.529,259.790 326.579,264.071 324.412 C 265.552 323.662,265.651 323.651,265.651 324.242 C 265.651 324.791,265.929 324.873,267.780 324.873 L 269.908 324.873 269.787 317.343 C 269.652 308.958,269.494 308.087,267.840 306.634 C 265.975 304.997,262.018 304.408,258.896 305.304 M231.349 306.041 C 229.769 306.851,229.696 306.858,229.533 306.234 C 229.387 305.678,229.049 305.584,227.202 305.584 L 225.042 305.584 225.042 315.398 L 225.042 325.212 227.411 325.212 L 229.780 325.212 229.780 318.940 C 229.780 312.089,230.032 310.837,231.620 309.797 C 233.054 308.857,235.024 308.982,236.123 310.080 L 237.056 311.012 237.165 318.112 L 237.274 325.212 239.467 325.212 L 241.660 325.212 241.557 317.513 C 241.443 308.878,241.255 308.061,238.986 306.330 C 237.226 304.988,233.666 304.853,231.349 306.041 M182.741 315.228 L 182.741 324.873 184.941 324.873 L 187.140 324.873 187.140 315.228 L 187.140 305.584 184.941 305.584 L 182.741 305.584 182.741 315.228 M246.024 315.228 L 246.024 324.873 248.223 324.873 L 250.423 324.873 250.423 315.228 L 250.423 305.584 248.223 305.584 L 246.024 305.584 246.024 315.228 M162.199 309.763 C 166.018 311.359,166.937 316.062,164.004 318.995 C 158.933 324.067,151.287 317.152,155.726 311.509 C 157.189 309.650,160.068 308.873,162.199 309.763 M214.843 310.420 C 218.384 312.763,218.040 318.183,214.226 320.129 C 209.946 322.312,204.904 318.339,206.162 313.774 C 207.251 309.817,211.470 308.187,214.843 310.420 M265.313 317.106 C 265.313 319.873,263.788 321.489,261.177 321.489 C 257.666 321.489,256.922 316.991,260.313 316.265 C 260.736 316.175,261.387 316.036,261.760 315.958 C 262.132 315.879,263.084 315.797,263.875 315.775 L 265.313 315.736 265.313 317.106 " stroke="none" fill="#000000" fill-rule="evenodd"></path></g></svg>